<svg width="166" height="60" viewBox="0 0 166 60" fill="none" xmlns="http://www.w3.org/2000/svg">
<g clip-path="url(#clip0_2_97)">
<path d="M100 51.25V0H40V51.25H58.75V57.5H53.75V60H86.25V57.5H81.25V51.25H100ZM42.5 2.5H97.5V41.25H42.5V2.5ZM78.75 57.5H61.25V51.25H78.75V57.5ZM42.5 48.75V43.75H97.5V48.75H42.5Z" fill="#288EED"/>
<path d="M70.929 21.4656H82.8047V20.0594H70.9316V17.5109C73.7426 17.4602 75.9262 16.7219 77.425 15.3094C79.5193 13.3344 79.7023 10.5625 79.625 9.08516C79.6023 8.61386 79.3861 8.16742 79.0191 7.83391C78.652 7.5004 78.1609 7.30405 77.6424 7.28359C76.0182 7.21328 72.9683 7.37969 70.7966 9.28359C70.5668 9.48499 70.3528 9.70089 70.1564 9.92969C69.9594 9.70107 69.7452 9.48518 69.5153 9.28359C67.3428 7.37969 64.2929 7.21328 62.6695 7.28359C62.151 7.30387 61.6597 7.50017 61.2927 7.83371C60.9256 8.16725 60.7095 8.6138 60.6869 9.08516C60.6096 10.5625 60.7927 13.3344 62.8869 15.3094C64.3866 16.7227 66.5711 17.4609 69.3847 17.5109V20.0594H57.6525V21.4656H69.3821V24.3562L61.8849 26.6578H57.6525V28.0641H61.2387V30.6422L58.1234 32.8133L59.0687 33.9297L62.0155 31.8758L64.6555 33.7187V36.8523H66.2024V33.0242L62.7855 30.643V27.868L70.1555 25.6023L77.5264 27.868V30.643L74.1087 33.0242V36.8523H75.6555V33.7187L78.2998 31.8758L81.2466 33.9297L82.1877 32.8133L79.0733 30.643V28.0648H82.8047V26.6586H78.427L70.929 24.357V21.4656ZM62.2321 9.15234C62.2369 9.03022 62.2921 8.91421 62.3867 8.82737C62.4812 8.74053 62.6083 8.6892 62.7426 8.68359C64.1176 8.625 66.688 8.75469 68.4419 10.2922C69.6605 11.3602 70.3119 12.9617 70.3867 15.0578C69.1913 12.7922 66.7825 12.0695 66.6596 12.0336L66.2187 13.3008C66.2437 13.3078 68.4531 13.9734 69.2798 16.1031C66.9595 16.0398 65.1841 15.4469 64.0024 14.3328C62.3094 12.7383 62.1668 10.4023 62.2321 9.15234Z" fill="#39DB19"/>
</g>
<path d="M2.4 27C2.04667 27 1.87 26.8233 1.87 26.47V14.64C1.87 14.2867 2.04667 14.11 2.4 14.11H9.89C10.2433 14.11 10.42 14.2867 10.42 14.64C10.42 14.9867 10.2433 15.16 9.89 15.16H2.92V19.95H7.53C7.88333 19.95 8.06 20.1233 8.06 20.47C8.06 20.8233 7.88333 21 7.53 21H2.92V25.95H9.89C10.2433 25.95 10.42 26.1233 10.42 26.47C10.42 26.8233 10.2433 27 9.89 27H2.4ZM15.8155 27C14.5688 27 13.6555 26.71 13.0755 26.13C12.4955 25.55 12.2055 24.6367 12.2055 23.39V21.13C12.2055 19.8833 12.4921 18.9733 13.0655 18.4C13.6455 17.82 14.5621 17.5367 15.8155 17.55H17.4555C18.4355 17.55 19.1821 17.7167 19.6955 18.05C20.2155 18.3767 20.5255 18.8933 20.6255 19.6C20.6455 19.78 20.6055 19.9167 20.5055 20.01C20.4121 20.1033 20.2788 20.15 20.1055 20.15C19.9455 20.15 19.8255 20.11 19.7455 20.03C19.6655 19.9433 19.6055 19.82 19.5655 19.66C19.4921 19.2733 19.2955 19 18.9755 18.84C18.6555 18.68 18.1488 18.6 17.4555 18.6H15.8155C14.8621 18.5867 14.1955 18.7667 13.8155 19.14C13.4421 19.5067 13.2555 20.17 13.2555 21.13V23.39C13.2555 24.3433 13.4421 25.01 13.8155 25.39C14.1955 25.7633 14.8621 25.95 15.8155 25.95H17.4555C18.1488 25.95 18.6555 25.87 18.9755 25.71C19.2955 25.55 19.4921 25.2733 19.5655 24.88C19.6055 24.72 19.6655 24.6 19.7455 24.52C19.8255 24.4333 19.9455 24.39 20.1055 24.39C20.2788 24.39 20.4121 24.44 20.5055 24.54C20.6055 24.6333 20.6455 24.7667 20.6255 24.94C20.5255 25.6467 20.2155 26.1667 19.6955 26.5C19.1821 26.8333 18.4355 27 17.4555 27H15.8155ZM27.2413 27C25.9946 27 25.0813 26.7133 24.5013 26.14C23.9213 25.56 23.6313 24.65 23.6313 23.41V21.15C23.6313 19.89 23.9213 18.9733 24.5013 18.4C25.0813 17.82 25.9946 17.5367 27.2413 17.55H28.8813C30.1279 17.55 31.0379 17.84 31.6113 18.42C32.1913 18.9933 32.4813 19.9033 32.4813 21.15V23.39C32.4813 24.6367 32.1913 25.55 31.6113 26.13C31.0379 26.71 30.1279 27 28.8813 27H27.2413ZM24.6813 23.41C24.6813 24.35 24.8679 25.01 25.2413 25.39C25.6213 25.7633 26.2879 25.95 27.2413 25.95H28.8813C29.8346 25.95 30.4979 25.7633 30.8713 25.39C31.2446 25.01 31.4313 24.3433 31.4313 23.39V21.15C31.4313 20.1967 31.2446 19.5333 30.8713 19.16C30.4979 18.7867 29.8346 18.6 28.8813 18.6H27.2413C26.6013 18.5933 26.0946 18.67 25.7213 18.83C25.3479 18.99 25.0813 19.2567 24.9213 19.63C24.7613 20.0033 24.6813 20.51 24.6813 21.15V23.41Z" fill="#00FF37"/>
<path d="M107.4 27C107.047 27 106.87 26.8233 106.87 26.47V14.64C106.87 14.2867 107.047 14.11 107.4 14.11H112.62C113.6 14.11 114.34 14.36 114.84 14.86C115.347 15.3533 115.6 16.08 115.6 17.04V17.58C115.6 18.6267 115.263 19.3667 114.59 19.8C115.757 20.28 116.34 21.32 116.34 22.92V23.55C116.34 24.6833 116.047 25.5433 115.46 26.13C114.88 26.71 114.02 27 112.88 27H107.4ZM107.92 25.95H112.88C113.727 25.95 114.34 25.76 114.72 25.38C115.1 25 115.29 24.39 115.29 23.55V22.92C115.29 22.08 115.1 21.4733 114.72 21.1C114.347 20.7267 113.733 20.54 112.88 20.54H107.92V25.95ZM107.92 19.49H112.77C113.377 19.49 113.823 19.3367 114.11 19.03C114.403 18.7167 114.55 18.2333 114.55 17.58V17.04C114.55 16.3733 114.397 15.8933 114.09 15.6C113.79 15.3067 113.3 15.16 112.62 15.16H107.92V19.49ZM121.652 31C120.779 31 120.132 30.79 119.712 30.37C119.299 29.95 119.092 29.2967 119.092 28.41C119.092 28.0633 119.266 27.89 119.612 27.89C119.966 27.89 120.142 28.0633 120.142 28.41C120.142 29.01 120.249 29.4167 120.462 29.63C120.676 29.8433 121.072 29.95 121.652 29.95H125.112C125.699 29.95 126.099 29.8433 126.312 29.63C126.526 29.4167 126.632 29.01 126.632 28.41V25.66C126.252 26.16 125.776 26.51 125.202 26.71C124.629 26.91 123.959 27.01 123.192 27.01H122.632C121.406 27.01 120.509 26.7267 119.942 26.16C119.376 25.5933 119.092 24.7033 119.092 23.49V18.06C119.092 17.7067 119.266 17.53 119.612 17.53C119.966 17.53 120.142 17.7067 120.142 18.06V23.49C120.142 24.4167 120.322 25.06 120.682 25.42C121.049 25.78 121.699 25.96 122.632 25.96H123.192C124.359 25.96 125.222 25.7567 125.782 25.35C126.349 24.9367 126.632 24.3167 126.632 23.49V18.06C126.632 17.7067 126.806 17.53 127.152 17.53C127.506 17.53 127.682 17.7067 127.682 18.06V28.41C127.682 29.2967 127.472 29.95 127.052 30.37C126.639 30.79 125.992 31 125.112 31H121.652ZM135.281 27C134.054 27 133.157 26.7167 132.591 26.15C132.024 25.5833 131.741 24.69 131.741 23.47V18.6H130.551C130.197 18.6 130.021 18.4233 130.021 18.07C130.021 17.7233 130.197 17.55 130.551 17.55H131.741V15.4C131.741 15.0467 131.914 14.87 132.261 14.87C132.614 14.87 132.791 15.0467 132.791 15.4V17.55H135.301C135.647 17.55 135.821 17.7233 135.821 18.07C135.821 18.4233 135.647 18.6 135.301 18.6H132.791V23.47C132.791 24.4033 132.971 25.05 133.331 25.41C133.697 25.77 134.347 25.95 135.281 25.95C135.474 25.95 135.611 25.9933 135.691 26.08C135.777 26.1667 135.821 26.2967 135.821 26.47C135.821 26.8233 135.641 27 135.281 27ZM138.568 22.68V23.41C138.568 24.35 138.755 25.01 139.128 25.39C139.508 25.7633 140.175 25.95 141.128 25.95H142.768C143.608 25.95 144.218 25.8433 144.598 25.63C144.985 25.41 145.215 25.0333 145.288 24.5C145.315 24.3333 145.368 24.2067 145.448 24.12C145.535 24.0333 145.665 23.99 145.838 23.99C146.011 23.99 146.141 24.04 146.228 24.14C146.321 24.2333 146.358 24.3667 146.338 24.54C146.251 25.38 145.915 26 145.328 26.4C144.741 26.8 143.888 27 142.768 27H141.128C139.881 27 138.968 26.7133 138.388 26.14C137.808 25.56 137.518 24.65 137.518 23.41V21.15C137.518 19.89 137.808 18.9733 138.388 18.4C138.968 17.82 139.881 17.5367 141.128 17.55H142.768C144.015 17.55 144.925 17.84 145.498 18.42C146.078 18.9933 146.368 19.9033 146.368 21.15V22.15C146.368 22.5033 146.195 22.68 145.848 22.68H138.568ZM141.128 18.6C140.175 18.5867 139.508 18.77 139.128 19.15C138.755 19.5233 138.568 20.19 138.568 21.15V21.63H145.318V21.15C145.318 20.1967 145.131 19.5333 144.758 19.16C144.385 18.7867 143.721 18.6 142.768 18.6H141.128ZM151.909 26.98C151.089 26.98 150.462 26.8067 150.029 26.46C149.595 26.1067 149.335 25.57 149.249 24.85C149.229 24.6767 149.265 24.5433 149.359 24.45C149.452 24.35 149.589 24.3 149.769 24.3C149.935 24.3 150.059 24.3433 150.139 24.43C150.225 24.5167 150.282 24.6467 150.309 24.82C150.369 25.2333 150.519 25.5233 150.759 25.69C151.005 25.85 151.389 25.93 151.909 25.93H155.189C155.809 25.93 156.235 25.8133 156.469 25.58C156.702 25.3467 156.819 24.92 156.819 24.3C156.819 23.6733 156.702 23.2433 156.469 23.01C156.235 22.7767 155.809 22.66 155.189 22.66H151.949C151.082 22.66 150.435 22.4533 150.009 22.04C149.589 21.62 149.379 20.9767 149.379 20.11C149.379 19.2233 149.589 18.5733 150.009 18.16C150.429 17.74 151.075 17.53 151.949 17.53H155.089C156.595 17.53 157.432 18.1967 157.599 19.53C157.625 19.7033 157.589 19.84 157.489 19.94C157.395 20.0333 157.262 20.08 157.089 20.08C156.922 20.08 156.795 20.0367 156.709 19.95C156.629 19.8633 156.572 19.7367 156.539 19.57C156.492 19.1967 156.355 18.94 156.129 18.8C155.909 18.6533 155.562 18.58 155.089 18.58H151.949C151.369 18.58 150.969 18.6867 150.749 18.9C150.535 19.1133 150.429 19.5167 150.429 20.11C150.429 20.6767 150.539 21.07 150.759 21.29C150.979 21.5033 151.375 21.61 151.949 21.61H155.189C156.109 21.61 156.785 21.83 157.219 22.27C157.652 22.7033 157.869 23.38 157.869 24.3C157.869 25.2133 157.652 25.89 157.219 26.33C156.785 26.7633 156.109 26.98 155.189 26.98H151.909Z" fill="#288EED"/>
<defs>
<clipPath id="clip0_2_97">
<rect width="60" height="60" fill="white" transform="translate(40)"/>
</clipPath>
</defs>
</svg>
